<svg xmlns="http://www.w3.org/2000/svg" width="16" height="16" viewBox="0 0 16 16">
  <g id="组_14316" data-name="组 14316" transform="translate(3712 -15308)">
    <g id="组_14315" data-name="组 14315" transform="translate(-3742.939 15277.089)">
      <path id="路径_20414" data-name="路径 20414" d="M210.149,208.778a.571.571,0,0,1,.787,0l1.841,1.768a.166.166,0,0,0,.224,0l2.591-2.49.426-.411a.571.571,0,0,1,.787,0l1.509,1.451a.569.569,0,0,1-.787.823l-1-.96a.166.166,0,0,0-.224,0l-3.01,2.895a.571.571,0,0,1-.787,0l-.411-.4-1.942-1.862a.569.569,0,0,1-.014-.8Z" transform="translate(-175.215 -172.762)" fill="#666"/>
      <path id="路径_20415" data-name="路径 20415" d="M32.256,33.072v9.535a.819.819,0,0,0,.816.816h4.446a.5.5,0,1,0,0-1H33.555a.305.305,0,0,1-.3-.3V33.563a.3.3,0,0,1,.3-.3H44.484a.305.305,0,0,1,.3.3v4.511a.5.5,0,0,0,1,0v-5a.819.819,0,0,0-.816-.816h-11.9A.813.813,0,0,0,32.256,33.072ZM34.061,45a.564.564,0,0,1,.563-.563h8.8a.563.563,0,1,1,0,1.126h-8.8A.564.564,0,0,1,34.061,45Z" transform="translate(0 0)" fill="#666"/>
      <path id="路径_20416" data-name="路径 20416" d="M563.414,474.244h-.065a2.1,2.1,0,0,0-.3-.78l.043-.043a.427.427,0,0,0,0-.614.431.431,0,0,0-.606,0l-.043.043a1.582,1.582,0,0,0-.787-.3v-.065a.419.419,0,0,0-.419-.419H561.2a.419.419,0,0,0-.419.419v.058a2.945,2.945,0,0,0-.787.3l-.058-.058a.418.418,0,0,0-.585,0l-.022.022a.427.427,0,0,0,0,.592l.05.051a2.1,2.1,0,0,0-.3.779h-.065a.419.419,0,0,0-.419.419v.036a.419.419,0,0,0,.419.419h.058a2.907,2.907,0,0,0,.3.78l-.014.007a.417.417,0,1,0,.563.614l.058-.058a1.583,1.583,0,0,0,.787.3v.058a.419.419,0,0,0,.419.419h.036a.419.419,0,0,0,.419-.419v.007a2.946,2.946,0,0,0,.787-.3l.058.058a.418.418,0,0,0,.585,0l.022-.022a.427.427,0,0,0,0-.592l-.051-.05a2.1,2.1,0,0,0,.3-.78h.065a.419.419,0,0,0,.419-.419v-.036A.419.419,0,0,0,563.414,474.244Zm-2.209,1.552a1.142,1.142,0,0,1-1.119-1.112,1.118,1.118,0,0,1,1.119-1.112,1.1,1.1,0,0,1,1.119,1.112A1.123,1.123,0,0,1,561.205,475.8Z" transform="translate(-518.916 -433.608)" fill="#666"/>
    </g>
    <g id="组件_10_9" data-name="组件 10 – 9" transform="translate(-3712 15308)">
      <rect id="矩形_1578" data-name="矩形 1578" width="16" height="16" fill="none"/>
    </g>
  </g>
</svg>
